<svg xmlns="http://www.w3.org/2000/svg" viewBox="0 0 960 540" width="960" height="540" role="img" aria-label="Strut render proof for Rolling Dice Motion"><rect width="100%" height="100%" fill="#f8fafc"/><text x="24" y="36" font-family="Arial, sans-serif" font-size="18" fill="#0f172a">Rolling Dice Motion / state: settle</text><rect x="378" y="174" width="210" height="210" rx="24" fill="#f5f7fb" stroke="#111827" stroke-width="5" opacity="1"/><rect x="402" y="214" width="168" height="146" rx="16" fill="#ffffff" stroke="#111827" stroke-width="4" opacity="1"/><path d="M402 214 L454 168 L618 184 L570 214 Z" fill="#e6edf7" stroke="#111827" stroke-width="4" opacity="1" stroke-linecap="round" stroke-linejoin="round"/><path d="M442 252 m-8 0 a8 8 0 1 0 16 0 a8 8 0 1 0 -16 0 M530 320 m-8 0 a8 8 0 1 0 16 0 a8 8 0 1 0 -16 0" fill="#f6f0df" stroke="#111827" stroke-width="4" opacity="1" stroke-linecap="round" stroke-linejoin="round"/><path d="M414 228 L454 188 L604 202" fill="#f6f0df" stroke="#b7c7db" stroke-width="7" opacity="1" stroke-linecap="round" stroke-linejoin="round"/><ellipse cx="494" cy="414" rx="116" ry="18" fill="#1f2937" stroke="none" stroke-width="0" opacity="0.22"/></svg>
